<svg width="4813" height="957" viewBox="0 0 4813 957" fill="none" xmlns="http://www.w3.org/2000/svg">
<path d="M837.919 622.362H633.881C625.526 622.362 618.754 629.135 618.754 637.489V841.65C618.754 879.395 588.171 910 550.498 910H402.72C365.003 910 334.465 879.395 334.465 841.65V637.489C334.465 629.135 327.692 622.362 319.338 622.362H115.255C77.5388 622.362 47 591.757 47 554.012V403.032C47 365.286 77.5388 334.681 115.255 334.681H319.381C327.736 334.681 334.508 327.909 334.508 319.554V115.35C334.508 77.6053 365.047 47 402.764 47H550.498C588.215 47 618.797 77.5618 618.797 115.35V200.54" stroke="#15C69B" stroke-width="94" stroke-linejoin="round"/>
<rect x="572" y="287" width="94" height="91" rx="20" fill="#15C69B"/>
<rect x="572" y="152" width="94" height="92" rx="20" fill="#15C69B"/>
<path d="M799.76 585.776L739.639 435.49C737.558 430.197 741.43 424.421 747.142 424.421L762.6 424.421C775.75 424.421 788.11 430.843 795.646 441.621L896.557 585.776L964.972 585.776C982.77 585.776 997.243 600.25 997.243 618.048C997.243 635.845 982.77 650.319 964.972 650.319L896.557 650.319L795.662 794.474C788.11 805.252 775.75 811.674 762.6 811.674L747.142 811.674C741.414 811.674 737.525 805.849 739.655 800.605L799.776 650.319L799.76 585.776Z" fill="#15C69B"/>
<path d="M1244.52 809V696.14H1261.13C1264.65 696.14 1266.96 697.79 1268.06 701.09L1269.82 709.45C1271.8 707.25 1273.85 705.233 1275.98 703.4C1278.18 701.567 1280.49 699.99 1282.91 698.67C1285.4 697.35 1288.04 696.323 1290.83 695.59C1293.69 694.783 1296.81 694.38 1300.18 694.38C1307.29 694.38 1313.12 696.323 1317.67 700.21C1322.29 704.023 1325.74 709.12 1328.01 715.5C1329.77 711.76 1331.97 708.57 1334.61 705.93C1337.25 703.217 1340.15 701.017 1343.3 699.33C1346.45 697.643 1349.79 696.397 1353.31 695.59C1356.9 694.783 1360.5 694.38 1364.09 694.38C1370.32 694.38 1375.86 695.333 1380.7 697.24C1385.54 699.147 1389.61 701.933 1392.91 705.6C1396.21 709.267 1398.7 713.74 1400.39 719.02C1402.15 724.3 1403.03 730.35 1403.03 737.17V809H1375.86V737.17C1375.86 729.983 1374.28 724.593 1371.13 721C1367.98 717.333 1363.36 715.5 1357.27 715.5C1354.48 715.5 1351.88 715.977 1349.46 716.93C1347.11 717.883 1345.02 719.277 1343.19 721.11C1341.43 722.87 1340.04 725.107 1339.01 727.82C1337.98 730.533 1337.47 733.65 1337.47 737.17V809H1310.19V737.17C1310.19 729.617 1308.65 724.117 1305.57 720.67C1302.56 717.223 1298.09 715.5 1292.15 715.5C1288.26 715.5 1284.6 716.49 1281.15 718.47C1277.78 720.377 1274.62 723.017 1271.69 726.39V809H1244.52ZM1533.56 694.38C1540.67 694.38 1547.2 695.517 1553.14 697.79C1559.15 700.063 1564.32 703.4 1568.65 707.8C1572.97 712.127 1576.35 717.48 1578.77 723.86C1581.19 730.167 1582.4 737.39 1582.4 745.53C1582.4 747.583 1582.29 749.307 1582.07 750.7C1581.92 752.02 1581.59 753.083 1581.08 753.89C1580.64 754.623 1580.01 755.173 1579.21 755.54C1578.4 755.833 1577.37 755.98 1576.13 755.98H1506.39C1507.19 767.567 1510.31 776.073 1515.74 781.5C1521.16 786.927 1528.35 789.64 1537.3 789.64C1541.7 789.64 1545.47 789.127 1548.63 788.1C1551.85 787.073 1554.64 785.937 1556.99 784.69C1559.41 783.443 1561.5 782.307 1563.26 781.28C1565.09 780.253 1566.85 779.74 1568.54 779.74C1569.64 779.74 1570.59 779.96 1571.4 780.4C1572.2 780.84 1572.9 781.463 1573.49 782.27L1581.41 792.17C1578.4 795.69 1575.03 798.66 1571.29 801.08C1567.55 803.427 1563.62 805.333 1559.52 806.8C1555.48 808.193 1551.34 809.183 1547.09 809.77C1542.91 810.357 1538.84 810.65 1534.88 810.65C1527.03 810.65 1519.73 809.367 1512.99 806.8C1506.24 804.16 1500.37 800.31 1495.39 795.25C1490.4 790.117 1486.48 783.81 1483.62 776.33C1480.76 768.777 1479.33 760.05 1479.33 750.15C1479.33 742.45 1480.57 735.227 1483.07 728.48C1485.56 721.66 1489.12 715.757 1493.74 710.77C1498.43 705.71 1504.11 701.713 1510.79 698.78C1517.53 695.847 1525.12 694.38 1533.56 694.38ZM1534.11 713.85C1526.19 713.85 1519.99 716.087 1515.52 720.56C1511.04 725.033 1508.18 731.377 1506.94 739.59H1557.98C1557.98 736.07 1557.5 732.77 1556.55 729.69C1555.59 726.537 1554.13 723.787 1552.15 721.44C1550.17 719.093 1547.67 717.26 1544.67 715.94C1541.66 714.547 1538.14 713.85 1534.11 713.85ZM1741.05 809C1737.53 809 1735.22 807.35 1734.12 804.05L1731.92 793.16C1729.58 795.8 1727.12 798.183 1724.55 800.31C1721.99 802.437 1719.2 804.27 1716.19 805.81C1713.26 807.35 1710.07 808.523 1706.62 809.33C1703.25 810.21 1699.58 810.65 1695.62 810.65C1689.46 810.65 1683.82 809.367 1678.68 806.8C1673.55 804.233 1669.11 800.53 1665.37 795.69C1661.71 790.777 1658.85 784.727 1656.79 777.54C1654.81 770.353 1653.82 762.14 1653.82 752.9C1653.82 744.54 1654.96 736.767 1657.23 729.58C1659.51 722.393 1662.77 716.16 1667.02 710.88C1671.28 705.6 1676.37 701.493 1682.31 698.56C1688.25 695.553 1694.93 694.05 1702.33 694.05C1708.64 694.05 1714.03 695.077 1718.5 697.13C1722.98 699.11 1726.97 701.787 1730.49 705.16V645.54H1757.66V809H1741.05ZM1704.86 789.09C1710.51 789.09 1715.31 787.917 1719.27 785.57C1723.23 783.223 1726.97 779.887 1730.49 775.56V724.96C1727.41 721.22 1724.04 718.58 1720.37 717.04C1716.78 715.5 1712.89 714.73 1708.71 714.73C1704.61 714.73 1700.87 715.5 1697.49 717.04C1694.19 718.58 1691.37 720.927 1689.02 724.08C1686.75 727.16 1684.99 731.12 1683.74 735.96C1682.5 740.727 1681.87 746.373 1681.87 752.9C1681.87 759.5 1682.39 765.11 1683.41 769.73C1684.51 774.277 1686.05 778.017 1688.03 780.95C1690.01 783.81 1692.43 785.9 1695.29 787.22C1698.15 788.467 1701.34 789.09 1704.86 789.09ZM1873.23 696.14V809H1846.06V696.14H1873.23ZM1877.3 663.25C1877.3 665.597 1876.83 667.797 1875.87 669.85C1874.92 671.903 1873.64 673.7 1872.02 675.24C1870.48 676.78 1868.65 678.027 1866.52 678.98C1864.4 679.86 1862.12 680.3 1859.7 680.3C1857.36 680.3 1855.12 679.86 1852.99 678.98C1850.94 678.027 1849.14 676.78 1847.6 675.24C1846.06 673.7 1844.82 671.903 1843.86 669.85C1842.98 667.797 1842.54 665.597 1842.54 663.25C1842.54 660.83 1842.98 658.557 1843.86 656.43C1844.82 654.303 1846.06 652.47 1847.6 650.93C1849.14 649.39 1850.94 648.18 1852.99 647.3C1855.12 646.347 1857.36 645.87 1859.7 645.87C1862.12 645.87 1864.4 646.347 1866.52 647.3C1868.65 648.18 1870.48 649.39 1872.02 650.93C1873.64 652.47 1874.92 654.303 1875.87 656.43C1876.83 658.557 1877.3 660.83 1877.3 663.25ZM2040.54 720.01C2039.73 721.037 2038.93 721.843 2038.12 722.43C2037.39 723.017 2036.29 723.31 2034.82 723.31C2033.43 723.31 2032.07 722.907 2030.75 722.1C2029.43 721.22 2027.85 720.267 2026.02 719.24C2024.19 718.14 2021.99 717.187 2019.42 716.38C2016.93 715.5 2013.81 715.06 2010.07 715.06C2005.3 715.06 2001.12 715.94 1997.53 717.7C1993.94 719.387 1990.93 721.843 1988.51 725.07C1986.16 728.297 1984.4 732.22 1983.23 736.84C1982.06 741.387 1981.47 746.557 1981.47 752.35C1981.47 758.363 1982.09 763.717 1983.34 768.41C1984.66 773.103 1986.53 777.063 1988.95 780.29C1991.37 783.443 1994.3 785.863 1997.75 787.55C2001.2 789.163 2005.08 789.97 2009.41 789.97C2013.74 789.97 2017.22 789.457 2019.86 788.43C2022.57 787.33 2024.85 786.157 2026.68 784.91C2028.51 783.59 2030.09 782.417 2031.41 781.39C2032.8 780.29 2034.34 779.74 2036.03 779.74C2038.23 779.74 2039.88 780.583 2040.98 782.27L2048.79 792.17C2045.78 795.69 2042.52 798.66 2039 801.08C2035.48 803.427 2031.81 805.333 2028 806.8C2024.26 808.193 2020.37 809.183 2016.34 809.77C2012.31 810.357 2008.31 810.65 2004.35 810.65C1997.38 810.65 1990.82 809.367 1984.66 806.8C1978.5 804.16 1973.11 800.347 1968.49 795.36C1963.94 790.373 1960.31 784.287 1957.6 777.1C1954.96 769.84 1953.64 761.59 1953.64 752.35C1953.64 744.063 1954.81 736.4 1957.16 729.36C1959.58 722.247 1963.1 716.123 1967.72 710.99C1972.34 705.783 1978.06 701.713 1984.88 698.78C1991.7 695.847 1999.55 694.38 2008.42 694.38C2016.85 694.38 2024.22 695.737 2030.53 698.45C2036.91 701.163 2042.63 705.05 2047.69 710.11L2040.54 720.01ZM2211.71 809H2199.5C2196.94 809 2194.92 808.633 2193.45 807.9C2191.99 807.093 2190.89 805.517 2190.15 803.17L2187.73 795.14C2184.87 797.707 2182.05 799.98 2179.26 801.96C2176.55 803.867 2173.73 805.48 2170.79 806.8C2167.86 808.12 2164.74 809.11 2161.44 809.77C2158.14 810.43 2154.48 810.76 2150.44 810.76C2145.68 810.76 2141.28 810.137 2137.24 808.89C2133.21 807.57 2129.73 805.627 2126.79 803.06C2123.93 800.493 2121.7 797.303 2120.08 793.49C2118.47 789.677 2117.66 785.24 2117.66 780.18C2117.66 775.927 2118.76 771.747 2120.96 767.64C2123.24 763.46 2126.98 759.72 2132.18 756.42C2137.39 753.047 2144.32 750.26 2152.97 748.06C2161.63 745.86 2172.37 744.613 2185.2 744.32V737.72C2185.2 730.167 2183.59 724.593 2180.36 721C2177.21 717.333 2172.59 715.5 2166.5 715.5C2162.1 715.5 2158.44 716.013 2155.5 717.04C2152.57 718.067 2150 719.24 2147.8 720.56C2145.68 721.807 2143.7 722.943 2141.86 723.97C2140.03 724.997 2138.01 725.51 2135.81 725.51C2133.98 725.51 2132.4 725.033 2131.08 724.08C2129.76 723.127 2128.7 721.953 2127.89 720.56L2122.94 711.87C2135.92 699.99 2151.58 694.05 2169.91 694.05C2176.51 694.05 2182.38 695.15 2187.51 697.35C2192.72 699.477 2197.12 702.483 2200.71 706.37C2204.31 710.183 2207.02 714.767 2208.85 720.12C2210.76 725.473 2211.71 731.34 2211.71 737.72V809ZM2158.91 792.06C2161.7 792.06 2164.27 791.803 2166.61 791.29C2168.96 790.777 2171.16 790.007 2173.21 788.98C2175.34 787.953 2177.36 786.707 2179.26 785.24C2181.24 783.7 2183.22 781.903 2185.2 779.85V760.82C2177.28 761.187 2170.65 761.883 2165.29 762.91C2160.01 763.863 2155.76 765.11 2152.53 766.65C2149.31 768.19 2147 769.987 2145.6 772.04C2144.28 774.093 2143.62 776.33 2143.62 778.75C2143.62 783.517 2145.02 786.927 2147.8 788.98C2150.66 791.033 2154.37 792.06 2158.91 792.06ZM2324.56 645.54V809H2297.39V645.54H2324.56ZM2549.37 810.76C2539.61 810.76 2532.1 808.01 2526.82 802.51C2521.54 796.937 2518.9 789.273 2518.9 779.52V716.49H2507.46C2505.99 716.49 2504.71 716.013 2503.61 715.06C2502.58 714.107 2502.07 712.677 2502.07 710.77V699.99L2520.22 697.02L2525.94 666.22C2526.23 664.753 2526.89 663.617 2527.92 662.81C2529.02 662.003 2530.37 661.6 2531.99 661.6H2546.07V697.13H2575.77V716.49H2546.07V777.65C2546.07 781.17 2546.95 783.92 2548.71 785.9C2550.47 787.88 2552.81 788.87 2555.75 788.87C2557.43 788.87 2558.83 788.687 2559.93 788.32C2561.1 787.88 2562.09 787.44 2562.9 787C2563.78 786.56 2564.55 786.157 2565.21 785.79C2565.87 785.35 2566.53 785.13 2567.19 785.13C2567.99 785.13 2568.65 785.35 2569.17 785.79C2569.68 786.157 2570.23 786.743 2570.82 787.55L2578.96 800.75C2575 804.05 2570.45 806.543 2565.32 808.23C2560.18 809.917 2554.87 810.76 2549.37 810.76ZM2702.75 694.38C2711.19 694.38 2718.81 695.737 2725.63 698.45C2732.53 701.163 2738.39 705.013 2743.23 710C2748.07 714.987 2751.81 721.073 2754.45 728.26C2757.09 735.447 2758.41 743.477 2758.41 752.35C2758.41 761.297 2757.09 769.363 2754.45 776.55C2751.81 783.737 2748.07 789.86 2743.23 794.92C2738.39 799.98 2732.53 803.867 2725.63 806.58C2718.81 809.293 2711.19 810.65 2702.75 810.65C2694.32 810.65 2686.66 809.293 2679.76 806.58C2672.87 803.867 2666.97 799.98 2662.05 794.92C2657.21 789.86 2653.44 783.737 2650.72 776.55C2648.08 769.363 2646.76 761.297 2646.76 752.35C2646.76 743.477 2648.08 735.447 2650.72 728.26C2653.44 721.073 2657.21 714.987 2662.05 710C2666.97 705.013 2672.87 701.163 2679.76 698.45C2686.66 695.737 2694.32 694.38 2702.75 694.38ZM2702.75 789.75C2712.14 789.75 2719.07 786.597 2723.54 780.29C2728.09 773.983 2730.36 764.743 2730.36 752.57C2730.36 740.397 2728.09 731.12 2723.54 724.74C2719.07 718.36 2712.14 715.17 2702.75 715.17C2693.22 715.17 2686.18 718.397 2681.63 724.85C2677.09 731.23 2674.81 740.47 2674.81 752.57C2674.81 764.67 2677.09 773.91 2681.63 780.29C2686.18 786.597 2693.22 789.75 2702.75 789.75ZM2861.67 696.14V767.86C2861.67 774.753 2863.25 780.107 2866.4 783.92C2869.63 787.66 2874.43 789.53 2880.81 789.53C2885.51 789.53 2889.91 788.503 2894.01 786.45C2898.12 784.323 2902.01 781.427 2905.67 777.76V696.14H2932.84V809H2916.23C2912.71 809 2910.4 807.35 2909.3 804.05L2907.43 795.03C2905.09 797.377 2902.67 799.54 2900.17 801.52C2897.68 803.427 2895 805.077 2892.14 806.47C2889.36 807.79 2886.31 808.817 2883.01 809.55C2879.79 810.357 2876.3 810.76 2872.56 810.76C2866.4 810.76 2860.94 809.733 2856.17 807.68C2851.48 805.553 2847.52 802.583 2844.29 798.77C2841.07 794.957 2838.61 790.447 2836.92 785.24C2835.31 779.96 2834.5 774.167 2834.5 767.86V696.14H2861.67ZM3019.05 809V696.14H3035C3037.79 696.14 3039.73 696.653 3040.83 697.68C3041.93 698.707 3042.67 700.467 3043.03 702.96L3044.68 716.6C3048.72 709.633 3053.45 704.133 3058.87 700.1C3064.3 696.067 3070.39 694.05 3077.13 694.05C3082.71 694.05 3087.33 695.333 3090.99 697.9L3087.47 718.25C3087.25 719.57 3086.78 720.523 3086.04 721.11C3085.31 721.623 3084.32 721.88 3083.07 721.88C3081.97 721.88 3080.47 721.623 3078.56 721.11C3076.66 720.597 3074.13 720.34 3070.97 720.34C3065.33 720.34 3060.49 721.917 3056.45 725.07C3052.42 728.15 3049.01 732.697 3046.22 738.71V809H3019.05ZM3194.99 696.14V809H3167.82V696.14H3194.99ZM3199.06 663.25C3199.06 665.597 3198.58 667.797 3197.63 669.85C3196.67 671.903 3195.39 673.7 3193.78 675.24C3192.24 676.78 3190.4 678.027 3188.28 678.98C3186.15 679.86 3183.88 680.3 3181.46 680.3C3179.11 680.3 3176.87 679.86 3174.75 678.98C3172.69 678.027 3170.9 676.78 3169.36 675.24C3167.82 673.7 3166.57 671.903 3165.62 669.85C3164.74 667.797 3164.3 665.597 3164.3 663.25C3164.3 660.83 3164.74 658.557 3165.62 656.43C3166.57 654.303 3167.82 652.47 3169.36 650.93C3170.9 649.39 3172.69 648.18 3174.75 647.3C3176.87 646.347 3179.11 645.87 3181.46 645.87C3183.88 645.87 3186.15 646.347 3188.28 647.3C3190.4 648.18 3192.24 649.39 3193.78 650.93C3195.39 652.47 3196.67 654.303 3197.63 656.43C3198.58 658.557 3199.06 660.83 3199.06 663.25ZM3349.97 718.14C3349.24 719.313 3348.47 720.157 3347.66 720.67C3346.86 721.11 3345.83 721.33 3344.58 721.33C3343.26 721.33 3341.83 720.963 3340.29 720.23C3338.83 719.497 3337.1 718.69 3335.12 717.81C3333.14 716.857 3330.87 716.013 3328.3 715.28C3325.81 714.547 3322.84 714.18 3319.39 714.18C3314.04 714.18 3309.82 715.317 3306.74 717.59C3303.66 719.863 3302.12 722.833 3302.12 726.5C3302.12 728.92 3302.89 730.973 3304.43 732.66C3306.05 734.273 3308.14 735.703 3310.7 736.95C3313.34 738.197 3316.31 739.333 3319.61 740.36C3322.91 741.313 3326.29 742.377 3329.73 743.55C3333.18 744.723 3336.55 746.08 3339.85 747.62C3343.15 749.087 3346.09 750.993 3348.65 753.34C3351.29 755.613 3353.38 758.363 3354.92 761.59C3356.54 764.817 3357.34 768.703 3357.34 773.25C3357.34 778.677 3356.35 783.7 3354.37 788.32C3352.39 792.867 3349.5 796.827 3345.68 800.2C3341.87 803.5 3337.14 806.103 3331.49 808.01C3325.92 809.843 3319.5 810.76 3312.24 810.76C3308.36 810.76 3304.54 810.393 3300.8 809.66C3297.14 809 3293.58 808.047 3290.13 806.8C3286.76 805.553 3283.61 804.087 3280.67 802.4C3277.81 800.713 3275.28 798.88 3273.08 796.9L3279.35 786.56C3280.16 785.313 3281.11 784.36 3282.21 783.7C3283.31 783.04 3284.71 782.71 3286.39 782.71C3288.08 782.71 3289.66 783.187 3291.12 784.14C3292.66 785.093 3294.42 786.12 3296.4 787.22C3298.38 788.32 3300.69 789.347 3303.33 790.3C3306.05 791.253 3309.46 791.73 3313.56 791.73C3316.79 791.73 3319.54 791.363 3321.81 790.63C3324.16 789.823 3326.07 788.797 3327.53 787.55C3329.07 786.303 3330.17 784.873 3330.83 783.26C3331.57 781.573 3331.93 779.85 3331.93 778.09C3331.93 775.45 3331.13 773.287 3329.51 771.6C3327.97 769.913 3325.88 768.447 3323.24 767.2C3320.68 765.953 3317.71 764.853 3314.33 763.9C3311.03 762.873 3307.62 761.773 3304.1 760.6C3300.66 759.427 3297.25 758.07 3293.87 756.53C3290.57 754.917 3287.6 752.9 3284.96 750.48C3282.4 748.06 3280.31 745.09 3278.69 741.57C3277.15 738.05 3276.38 733.797 3276.38 728.81C3276.38 724.19 3277.3 719.79 3279.13 715.61C3280.97 711.43 3283.64 707.8 3287.16 704.72C3290.76 701.567 3295.19 699.073 3300.47 697.24C3305.83 695.333 3311.99 694.38 3318.95 694.38C3326.73 694.38 3333.8 695.663 3340.18 698.23C3346.56 700.797 3351.88 704.17 3356.13 708.35L3349.97 718.14ZM3436.22 809V696.14H3452.83C3456.35 696.14 3458.66 697.79 3459.76 701.09L3461.52 709.45C3463.5 707.25 3465.55 705.233 3467.68 703.4C3469.88 701.567 3472.19 699.99 3474.61 698.67C3477.1 697.35 3479.74 696.323 3482.53 695.59C3485.39 694.783 3488.51 694.38 3491.88 694.38C3498.99 694.38 3504.82 696.323 3509.37 700.21C3513.99 704.023 3517.44 709.12 3519.71 715.5C3521.47 711.76 3523.67 708.57 3526.31 705.93C3528.95 703.217 3531.85 701.017 3535 699.33C3538.15 697.643 3541.49 696.397 3545.01 695.59C3548.6 694.783 3552.2 694.38 3555.79 694.38C3562.02 694.38 3567.56 695.333 3572.4 697.24C3577.24 699.147 3581.31 701.933 3584.61 705.6C3587.91 709.267 3590.4 713.74 3592.09 719.02C3593.85 724.3 3594.73 730.35 3594.73 737.17V809H3567.56V737.17C3567.56 729.983 3565.98 724.593 3562.83 721C3559.68 717.333 3555.06 715.5 3548.97 715.5C3546.18 715.5 3543.58 715.977 3541.16 716.93C3538.81 717.883 3536.72 719.277 3534.89 721.11C3533.13 722.87 3531.74 725.107 3530.71 727.82C3529.68 730.533 3529.17 733.65 3529.17 737.17V809H3501.89V737.17C3501.89 729.617 3500.35 724.117 3497.27 720.67C3494.26 717.223 3489.79 715.5 3483.85 715.5C3479.96 715.5 3476.3 716.49 3472.85 718.47C3469.48 720.377 3466.32 723.017 3463.39 726.39V809H3436.22ZM3866.79 809H3854.58C3852.02 809 3850 808.633 3848.53 807.9C3847.07 807.093 3845.97 805.517 3845.23 803.17L3842.81 795.14C3839.95 797.707 3837.13 799.98 3834.34 801.96C3831.63 803.867 3828.81 805.48 3825.87 806.8C3822.94 808.12 3819.82 809.11 3816.52 809.77C3813.22 810.43 3809.56 810.76 3805.52 810.76C3800.76 810.76 3796.36 810.137 3792.32 808.89C3788.29 807.57 3784.81 805.627 3781.87 803.06C3779.01 800.493 3776.78 797.303 3775.16 793.49C3773.55 789.677 3772.74 785.24 3772.74 780.18C3772.74 775.927 3773.84 771.747 3776.04 767.64C3778.32 763.46 3782.06 759.72 3787.26 756.42C3792.47 753.047 3799.4 750.26 3808.05 748.06C3816.71 745.86 3827.45 744.613 3840.28 744.32V737.72C3840.28 730.167 3838.67 724.593 3835.44 721C3832.29 717.333 3827.67 715.5 3821.58 715.5C3817.18 715.5 3813.52 716.013 3810.58 717.04C3807.65 718.067 3805.08 719.24 3802.88 720.56C3800.76 721.807 3798.78 722.943 3796.94 723.97C3795.11 724.997 3793.09 725.51 3790.89 725.51C3789.06 725.51 3787.48 725.033 3786.16 724.08C3784.84 723.127 3783.78 721.953 3782.97 720.56L3778.02 711.87C3791 699.99 3806.66 694.05 3824.99 694.05C3831.59 694.05 3837.46 695.15 3842.59 697.35C3847.8 699.477 3852.2 702.483 3855.79 706.37C3859.39 710.183 3862.1 714.767 3863.93 720.12C3865.84 725.473 3866.79 731.34 3866.79 737.72V809ZM3813.99 792.06C3816.78 792.06 3819.35 791.803 3821.69 791.29C3824.04 790.777 3826.24 790.007 3828.29 788.98C3830.42 787.953 3832.44 786.707 3834.34 785.24C3836.32 783.7 3838.3 781.903 3840.28 779.85V760.82C3832.36 761.187 3825.73 761.883 3820.37 762.91C3815.09 763.863 3810.84 765.11 3807.61 766.65C3804.39 768.19 3802.08 769.987 3800.68 772.04C3799.36 774.093 3798.7 776.33 3798.7 778.75C3798.7 783.517 3800.1 786.927 3802.88 788.98C3805.74 791.033 3809.45 792.06 3813.99 792.06ZM3989.76 694.16C3994.6 694.16 3999.15 694.673 4003.4 695.7C4007.65 696.653 4011.54 698.083 4015.06 699.99H4047.51V710.11C4047.51 711.797 4047.07 713.117 4046.19 714.07C4045.31 715.023 4043.81 715.683 4041.68 716.05L4031.56 717.92C4032.29 719.827 4032.84 721.843 4033.21 723.97C4033.65 726.097 4033.87 728.333 4033.87 730.68C4033.87 736.253 4032.73 741.313 4030.46 745.86C4028.26 750.333 4025.18 754.147 4021.22 757.3C4017.33 760.453 4012.68 762.91 4007.25 764.67C4001.9 766.357 3996.07 767.2 3989.76 767.2C3985.51 767.2 3981.36 766.797 3977.33 765.99C3973.81 768.117 3972.05 770.5 3972.05 773.14C3972.05 775.413 3973.08 777.1 3975.13 778.2C3977.26 779.227 3980.01 779.96 3983.38 780.4C3986.83 780.84 3990.71 781.133 3995.04 781.28C3999.37 781.353 4003.8 781.573 4008.35 781.94C4012.9 782.307 4017.33 782.967 4021.66 783.92C4025.99 784.8 4029.84 786.23 4033.21 788.21C4036.66 790.19 4039.41 792.903 4041.46 796.35C4043.59 799.723 4044.65 804.087 4044.65 809.44C4044.65 814.427 4043.4 819.267 4040.91 823.96C4038.49 828.653 4034.93 832.833 4030.24 836.5C4025.62 840.167 4019.94 843.1 4013.19 845.3C4006.44 847.573 3998.74 848.71 3990.09 848.71C3981.51 848.71 3974.07 847.867 3967.76 846.18C3961.45 844.567 3956.21 842.367 3952.03 839.58C3947.92 836.867 3944.84 833.713 3942.79 830.12C3940.74 826.527 3939.71 822.787 3939.71 818.9C3939.71 813.62 3941.32 809.183 3944.55 805.59C3947.78 801.997 3952.25 799.137 3957.97 797.01C3955.18 795.47 3952.95 793.417 3951.26 790.85C3949.57 788.283 3948.73 784.947 3948.73 780.84C3948.73 779.153 3949.02 777.43 3949.61 775.67C3950.2 773.837 3951.08 772.04 3952.25 770.28C3953.5 768.52 3955.04 766.87 3956.87 765.33C3958.7 763.717 3960.87 762.287 3963.36 761.04C3957.64 757.96 3953.13 753.853 3949.83 748.72C3946.6 743.587 3944.99 737.573 3944.99 730.68C3944.99 725.107 3946.09 720.083 3948.29 715.61C3950.56 711.063 3953.68 707.213 3957.64 704.06C3961.67 700.833 3966.4 698.377 3971.83 696.69C3977.33 695.003 3983.31 694.16 3989.76 694.16ZM4019.57 814.06C4019.57 811.86 4018.91 810.063 4017.59 808.67C4016.27 807.277 4014.47 806.213 4012.2 805.48C4009.93 804.673 4007.25 804.087 4004.17 803.72C4001.16 803.353 3997.94 803.097 3994.49 802.95C3991.12 802.73 3987.6 802.547 3983.93 802.4C3980.34 802.18 3976.85 801.85 3973.48 801.41C3970.4 803.097 3967.91 805.113 3966 807.46C3964.17 809.733 3963.25 812.373 3963.25 815.38C3963.25 817.36 3963.73 819.193 3964.68 820.88C3965.71 822.64 3967.28 824.143 3969.41 825.39C3971.61 826.637 3974.43 827.59 3977.88 828.25C3981.33 828.983 3985.54 829.35 3990.53 829.35C3995.59 829.35 3999.95 828.947 4003.62 828.14C4007.29 827.407 4010.29 826.343 4012.64 824.95C4015.06 823.63 4016.82 822.017 4017.92 820.11C4019.02 818.277 4019.57 816.26 4019.57 814.06ZM3989.76 749.82C3993.13 749.82 3996.07 749.38 3998.56 748.5C4001.05 747.547 4003.11 746.263 4004.72 744.65C4006.41 743.037 4007.65 741.093 4008.46 738.82C4009.34 736.547 4009.78 734.053 4009.78 731.34C4009.78 725.767 4008.09 721.367 4004.72 718.14C4001.42 714.84 3996.43 713.19 3989.76 713.19C3983.09 713.19 3978.06 714.84 3974.69 718.14C3971.39 721.367 3969.74 725.767 3969.74 731.34C3969.74 733.98 3970.14 736.437 3970.95 738.71C3971.83 740.983 3973.08 742.963 3974.69 744.65C3976.38 746.263 3978.47 747.547 3980.96 748.5C3983.53 749.38 3986.46 749.82 3989.76 749.82ZM4168.42 694.38C4175.53 694.38 4182.06 695.517 4188 697.79C4194.01 700.063 4199.18 703.4 4203.51 707.8C4207.83 712.127 4211.21 717.48 4213.63 723.86C4216.05 730.167 4217.26 737.39 4217.26 745.53C4217.26 747.583 4217.15 749.307 4216.93 750.7C4216.78 752.02 4216.45 753.083 4215.94 753.89C4215.5 754.623 4214.87 755.173 4214.07 755.54C4213.26 755.833 4212.23 755.98 4210.99 755.98H4141.25C4142.05 767.567 4145.17 776.073 4150.6 781.5C4156.02 786.927 4163.21 789.64 4172.16 789.64C4176.56 789.64 4180.33 789.127 4183.49 788.1C4186.71 787.073 4189.5 785.937 4191.85 784.69C4194.27 783.443 4196.36 782.307 4198.12 781.28C4199.95 780.253 4201.71 779.74 4203.4 779.74C4204.5 779.74 4205.45 779.96 4206.26 780.4C4207.06 780.84 4207.76 781.463 4208.35 782.27L4216.27 792.17C4213.26 795.69 4209.89 798.66 4206.15 801.08C4202.41 803.427 4198.48 805.333 4194.38 806.8C4190.34 808.193 4186.2 809.183 4181.95 809.77C4177.77 810.357 4173.7 810.65 4169.74 810.65C4161.89 810.65 4154.59 809.367 4147.85 806.8C4141.1 804.16 4135.23 800.31 4130.25 795.25C4125.26 790.117 4121.34 783.81 4118.48 776.33C4115.62 768.777 4114.19 760.05 4114.19 750.15C4114.19 742.45 4115.43 735.227 4117.93 728.48C4120.42 721.66 4123.98 715.757 4128.6 710.77C4133.29 705.71 4138.97 701.713 4145.65 698.78C4152.39 695.847 4159.98 694.38 4168.42 694.38ZM4168.97 713.85C4161.05 713.85 4154.85 716.087 4150.38 720.56C4145.9 725.033 4143.04 731.377 4141.8 739.59H4192.84C4192.84 736.07 4192.36 732.77 4191.41 729.69C4190.45 726.537 4188.99 723.787 4187.01 721.44C4185.03 719.093 4182.53 717.26 4179.53 715.94C4176.52 714.547 4173 713.85 4168.97 713.85ZM4296.5 809V696.14H4313.11C4316.63 696.14 4318.94 697.79 4320.04 701.09L4321.91 710C4324.18 707.653 4326.56 705.527 4329.06 703.62C4331.62 701.713 4334.3 700.063 4337.09 698.67C4339.95 697.277 4342.99 696.213 4346.22 695.48C4349.44 694.747 4352.96 694.38 4356.78 694.38C4362.94 694.38 4368.4 695.443 4373.17 697.57C4377.93 699.623 4381.89 702.557 4385.05 706.37C4388.27 710.11 4390.69 714.62 4392.31 719.9C4393.99 725.107 4394.84 730.863 4394.84 737.17V809H4367.67V737.17C4367.67 730.277 4366.05 724.96 4362.83 721.22C4359.67 717.407 4354.91 715.5 4348.53 715.5C4343.83 715.5 4339.43 716.563 4335.33 718.69C4331.22 720.817 4327.33 723.713 4323.67 727.38V809H4296.5ZM4558.04 720.01C4557.24 721.037 4556.43 721.843 4555.62 722.43C4554.89 723.017 4553.79 723.31 4552.32 723.31C4550.93 723.31 4549.57 722.907 4548.25 722.1C4546.93 721.22 4545.36 720.267 4543.52 719.24C4541.69 718.14 4539.49 717.187 4536.92 716.38C4534.43 715.5 4531.31 715.06 4527.57 715.06C4522.81 715.06 4518.63 715.94 4515.03 717.7C4511.44 719.387 4508.43 721.843 4506.01 725.07C4503.67 728.297 4501.91 732.22 4500.73 736.84C4499.56 741.387 4498.97 746.557 4498.97 752.35C4498.97 758.363 4499.6 763.717 4500.84 768.41C4502.16 773.103 4504.03 777.063 4506.45 780.29C4508.87 783.443 4511.81 785.863 4515.25 787.55C4518.7 789.163 4522.59 789.97 4526.91 789.97C4531.24 789.97 4534.72 789.457 4537.36 788.43C4540.08 787.33 4542.35 786.157 4544.18 784.91C4546.02 783.59 4547.59 782.417 4548.91 781.39C4550.31 780.29 4551.85 779.74 4553.53 779.74C4555.73 779.74 4557.38 780.583 4558.48 782.27L4566.29 792.17C4563.29 795.69 4560.02 798.66 4556.5 801.08C4552.98 803.427 4549.32 805.333 4545.5 806.8C4541.76 808.193 4537.88 809.183 4533.84 809.77C4529.81 810.357 4525.81 810.65 4521.85 810.65C4514.89 810.65 4508.32 809.367 4502.16 806.8C4496 804.16 4490.61 800.347 4485.99 795.36C4481.45 790.373 4477.82 784.287 4475.1 777.1C4472.46 769.84 4471.14 761.59 4471.14 752.35C4471.14 744.063 4472.32 736.4 4474.66 729.36C4477.08 722.247 4480.6 716.123 4485.22 710.99C4489.84 705.783 4495.56 701.713 4502.38 698.78C4509.2 695.847 4517.05 694.38 4525.92 694.38C4534.36 694.38 4541.73 695.737 4548.03 698.45C4554.41 701.163 4560.13 705.05 4565.19 710.11L4558.04 720.01ZM4680.82 840.02C4680.01 841.927 4678.95 843.357 4677.63 844.31C4676.38 845.337 4674.44 845.85 4671.8 845.85H4651.56L4672.68 800.64L4627.03 696.14H4650.79C4652.99 696.14 4654.68 696.653 4655.85 697.68C4657.02 698.707 4657.9 699.88 4658.49 701.2L4682.58 759.72C4683.39 761.627 4684.08 763.607 4684.67 765.66C4685.26 767.713 4685.77 769.767 4686.21 771.82C4686.8 769.693 4687.42 767.64 4688.08 765.66C4688.81 763.68 4689.58 761.663 4690.39 759.61L4713.05 701.2C4713.64 699.733 4714.59 698.523 4715.91 697.57C4717.3 696.617 4718.84 696.14 4720.53 696.14H4742.31L4680.82 840.02Z" fill="white" fill-opacity="0.53"/>
<path d="M1456 127V199C1429 183.333 1401 175.5 1372 175.5C1359 175.5 1349 178.167 1342 183.5C1335.33 188.833 1332 195.667 1332 204C1332 212.333 1336.17 219.833 1344.5 226.5C1352.83 232.833 1365.33 239.667 1382 247C1392.33 251.667 1400.83 255.833 1407.5 259.5C1414.5 262.833 1422.33 267.667 1431 274C1440 280 1447 286.5 1452 293.5C1457.33 300.167 1461.83 308.5 1465.5 318.5C1469.17 328.5 1471 339.333 1471 351C1471 381.333 1459.83 406 1437.5 425C1415.17 443.667 1385.5 453 1348.5 453C1308.83 453 1276.5 446 1251.5 432V354.5C1281.83 376.5 1314.17 387.5 1348.5 387.5C1360.17 387.5 1369.83 384.5 1377.5 378.5C1385.17 372.167 1389 364 1389 354C1389 350.667 1388.5 347.5 1387.5 344.5C1386.5 341.5 1384.67 338.667 1382 336C1379.33 333.333 1376.67 331.167 1374 329.5C1371.67 327.5 1368 325.333 1363 323C1358.33 320.333 1354.33 318.167 1351 316.5C1347.67 314.833 1342.67 312.5 1336 309.5C1329.67 306.5 1324.5 304.167 1320.5 302.5C1298.83 292.5 1281.33 280.167 1268 265.5C1255 250.833 1248.5 231.333 1248.5 207C1248.5 178 1259.17 154.667 1280.5 137C1301.83 119 1331.33 110 1369 110C1402.67 110 1431.67 115.667 1456 127ZM1676.34 345H1652.84C1640.5 345 1631 347.667 1624.34 353C1617.67 358.333 1614.34 365.167 1614.34 373.5C1614.34 390.5 1624.17 399 1643.84 399C1654.17 399 1662.17 395.833 1667.84 389.5C1673.5 383.167 1676.34 374.5 1676.34 363.5V345ZM1557.84 273.5V208C1577.84 196.667 1606.67 191 1644.34 191C1680.34 191 1707.17 198.833 1724.84 214.5C1742.5 229.833 1751.34 253.833 1751.34 286.5V449H1679.84V418C1669.17 439.667 1648.17 450.5 1616.84 450.5C1592.17 450.5 1572.84 443.5 1558.84 429.5C1545.17 415.5 1538.34 398 1538.34 377C1538.34 352.667 1547.17 333.833 1564.84 320.5C1582.84 306.833 1609.34 300 1644.34 300H1676.34V282.5C1676.34 261.167 1662.17 250.5 1633.84 250.5C1606.5 250.5 1581.17 258.167 1557.84 273.5ZM1916.65 195.5V238.5C1922.98 224.5 1932.65 213.5 1945.65 205.5C1958.98 197.167 1974.82 193 1993.15 193C2019.15 193 2039.48 200.833 2054.15 216.5C2068.82 231.833 2076.15 254.5 2076.15 284.5V449H2003.15V298C2003.15 283 1999.65 271.667 1992.65 264C1985.65 256 1975.82 252 1963.15 252C1949.82 252 1938.65 257.333 1929.65 268C1920.98 278.333 1916.65 294 1916.65 315V449H1843.65V195.5H1916.65ZM2171.19 449V195.5H2244.19V449H2171.19ZM2177.69 152C2169.35 143.667 2165.19 133.667 2165.19 122C2165.19 110.333 2169.35 100.333 2177.69 92C2186.02 83.6667 2196.02 79.5 2207.69 79.5C2219.35 79.5 2229.35 83.6667 2237.69 92C2246.02 100.333 2250.19 110.333 2250.19 122C2250.19 133.667 2246.02 143.667 2237.69 152C2229.35 160.333 2219.35 164.5 2207.69 164.5C2196.02 164.5 2186.02 160.333 2177.69 152ZM2426.37 249V365.5C2426.37 374.5 2428.87 381.333 2433.87 386C2439.2 390.667 2446.04 393 2454.37 393C2467.7 393 2479.54 389.667 2489.87 383V443.5C2477.54 448.833 2460.87 451.5 2439.87 451.5C2382.2 451.5 2353.37 422.667 2353.37 365V249H2316.87V195.5H2353.37V135.5H2426.37V195.5H2485.37V249H2426.37ZM2695.24 345H2671.74C2659.41 345 2649.91 347.667 2643.24 353C2636.58 358.333 2633.24 365.167 2633.24 373.5C2633.24 390.5 2643.08 399 2662.74 399C2673.08 399 2681.08 395.833 2686.74 389.5C2692.41 383.167 2695.24 374.5 2695.24 363.5V345ZM2576.74 273.5V208C2596.74 196.667 2625.58 191 2663.24 191C2699.24 191 2726.08 198.833 2743.74 214.5C2761.41 229.833 2770.24 253.833 2770.24 286.5V449H2698.74V418C2688.08 439.667 2667.08 450.5 2635.74 450.5C2611.08 450.5 2591.74 443.5 2577.74 429.5C2564.08 415.5 2557.24 398 2557.24 377C2557.24 352.667 2566.08 333.833 2583.74 320.5C2601.74 306.833 2628.24 300 2663.24 300H2695.24V282.5C2695.24 261.167 2681.08 250.5 2652.74 250.5C2625.41 250.5 2600.08 258.167 2576.74 273.5ZM3022.55 203V265.5C3004.89 255.167 2984.22 250 2960.55 250C2951.89 250 2945.22 251.833 2940.55 255.5C2935.89 258.833 2933.55 263.167 2933.55 268.5C2933.55 271.5 2934.39 274.333 2936.05 277C2937.72 279.667 2940.39 282.167 2944.05 284.5C2948.05 286.833 2951.72 289 2955.05 291C2958.72 292.667 2963.55 294.833 2969.55 297.5C2975.89 300.167 2980.89 302.5 2984.55 304.5C2999.89 312.5 3012.22 321.833 3021.55 332.5C3030.89 342.833 3035.55 356.167 3035.55 372.5C3035.55 397.5 3026.55 416.833 3008.55 430.5C2990.55 444.167 2966.72 451 2937.05 451C2906.39 451 2880.72 445.833 2860.05 435.5V370.5C2883.05 386.5 2907.39 394.5 2933.05 394.5C2951.39 394.5 2960.55 388.667 2960.55 377C2960.55 374 2959.72 371.167 2958.05 368.5C2956.39 365.833 2953.55 363.333 2949.55 361C2945.55 358.667 2941.89 356.833 2938.55 355.5C2935.22 353.833 2930.39 351.667 2924.05 349C2917.72 346.333 2912.89 344.167 2909.55 342.5C2875.89 326.5 2859.05 302.5 2859.05 270.5C2859.05 245.833 2868.39 226.667 2887.05 213C2906.05 199.333 2929.55 192.5 2957.55 192.5C2983.55 192.5 3005.22 196 3022.55 203ZM3568.33 248V418C3536.33 441.333 3495.99 453 3447.33 453C3393.33 453 3349.49 437.5 3315.83 406.5C3282.16 375.5 3265.33 333.333 3265.33 280C3265.33 227.333 3282.83 185.167 3317.83 153.5C3353.16 121.833 3397.83 106 3451.83 106C3489.83 106 3522.66 113 3550.33 127V204C3518.33 185.667 3485.49 176.5 3451.83 176.5C3420.16 176.5 3394.99 186 3376.33 205C3357.66 223.667 3348.33 248.667 3348.33 280C3348.33 311.667 3357.49 336.833 3375.83 355.5C3394.16 374.167 3419.16 383.5 3450.83 383.5C3465.16 383.5 3479.33 381.333 3493.33 377V313.5H3438.83V248H3568.33ZM3735.86 195.5V242.5C3740.52 227.833 3748.19 216.167 3758.86 207.5C3769.86 198.5 3782.52 194 3796.86 194C3804.86 194 3811.19 194.667 3815.86 196V265C3807.86 261.333 3798.69 259.5 3788.36 259.5C3772.69 259.5 3760.02 265.333 3750.36 277C3740.69 288.333 3735.86 303.5 3735.86 322.5V449H3662.86L3663.36 195.5H3735.86ZM3995.41 453C3955.75 453 3925.08 441.167 3903.41 417.5C3881.75 393.5 3870.91 362.833 3870.91 325.5C3870.91 286.5 3882.25 254.5 3904.91 229.5C3927.58 204.167 3957.75 191.5 3995.41 191.5C4034.75 191.5 4065.25 203.667 4086.91 228C4108.58 252.333 4119.41 283.333 4119.41 321C4119.41 359.333 4108.41 391 4086.41 416C4064.75 440.667 4034.41 453 3995.41 453ZM3994.91 249C3978.91 249 3966.91 255.833 3958.91 269.5C3950.91 283.167 3946.91 300.833 3946.91 322.5C3946.91 344.167 3950.91 362 3958.91 376C3967.25 389.667 3979.58 396.5 3995.91 396.5C4011.91 396.5 4023.75 389.833 4031.41 376.5C4039.41 362.833 4043.41 345.167 4043.41 323.5C4043.41 273.833 4027.25 249 3994.91 249ZM4359.11 195.5H4432.11V449H4359.11V408.5C4345.77 436.833 4320.11 451 4282.11 451C4256.11 451 4235.77 443.833 4221.11 429.5C4206.77 414.833 4199.61 393.333 4199.61 365V195.5H4272.61V348.5C4272.61 378.167 4285.61 393 4311.61 393C4343.27 393 4359.11 371.833 4359.11 329.5V195.5ZM4657.14 391C4673.14 391 4686.14 385 4696.14 373C4706.14 360.667 4711.14 344 4711.14 323C4711.14 300 4705.98 282.667 4695.64 271C4685.64 259 4672.81 253 4657.14 253C4641.81 253 4628.48 258.833 4617.14 270.5C4605.81 282.167 4600.14 298.5 4600.14 319.5C4600.14 341.167 4605.48 358.5 4616.14 371.5C4626.81 384.5 4640.48 391 4657.14 391ZM4600.14 195.5V234.5C4617.81 206.5 4643.31 192.5 4676.64 192.5C4709.31 192.5 4735.48 204.167 4755.14 227.5C4775.14 250.5 4785.14 281.833 4785.14 321.5C4785.14 359.167 4775.48 390.333 4756.14 415C4737.14 439.667 4710.64 452 4676.64 452C4642.31 452 4616.81 438.5 4600.14 411.5V542.5H4527.14V195.5H4600.14Z" fill="white"/>
</svg>
